<svg width="40" height="40" fill="none" xmlns="http://www.w3.org/2000/svg">
    <path d="M32.084 7.94V4H24.02v3.99H16.03V4H7.916v3.94H4V36h12.004v-3.995a3.996 3.996 0 0 1 7.992 0V36H36V7.94h-3.916Z"
          fill="url(#a)"/>
    <rect x="10" y="19" width="28" height="12" rx="2" fill="#D9D9D9"/>
    <path d="M12.488 29.092a.83.83 0 0 1-.604-.248.83.83 0 0 1-.248-.604c0-.232.083-.43.248-.596a.83.83 0 0 1 .604-.25c.227 0 .426.084.597.25.17.165.255.364.255.596 0 .156-.04.3-.12.43a.918.918 0 0 1-.31.309.813.813 0 0 1-.422.113ZM15.864 29h-1.648l2.511-7.273h1.982L21.216 29h-1.648l-1.822-5.61h-.056L15.863 29Zm-.103-2.859h3.892v1.2h-3.892v-1.2ZM23.345 29h-1.648l2.51-7.273h1.982L28.696 29h-1.648l-1.821-5.61h-.057L23.345 29Zm-.103-2.859h3.892v1.2h-3.892v-1.2ZM29.572 29v-7.273h2.869c.55 0 1.018.099 1.406.295.39.194.688.47.892.827.205.355.308.773.308 1.254 0 .483-.104.898-.312 1.246-.208.346-.51.611-.906.796-.393.184-.868.277-1.427.277H30.48v-1.236h1.672c.294 0 .538-.04.732-.12a.87.87 0 0 0 .433-.363c.097-.16.146-.36.146-.6a1.19 1.19 0 0 0-.146-.61.893.893 0 0 0-.437-.377c-.194-.088-.439-.132-.735-.132H31.11V29h-1.537Zm3.927-3.31L35.307 29h-1.698l-1.768-3.31h1.658Z"
          fill="#000" fill-opacity=".85"/>
    <defs>
        <linearGradient id="a" x1="2.942" y1="4.9" x2="37.777" y2="39.734" gradientUnits="userSpaceOnUse">
            <stop stop-color="#6DD978"/>
            <stop offset=".609" stop-color="#37BA7B"/>
        </linearGradient>
    </defs>
</svg>